<?xml version="1.0" encoding="UTF-8"?>
<svg xmlns="http://www.w3.org/2000/svg" viewBox="0 0 1918.29 811.72">
  <defs>
    <style>
      .cls-1 {
        fill: #fff;
      }

      .cls-2 {
        fill: none;
      }

      .cls-3 {
        font-family: DimitriSwank, 'Dimitri Swank';
        font-size: 636.89px;
      }

      .cls-3, .cls-4 {
        fill: #1d1d1b;
      }
    </style>
  </defs>
  <g id="Warstwa_10" data-name="Warstwa 10">
    <rect class="cls-1" x="121.04" y="95.51" width="1769.87" height="460.18"/>
    <rect class="cls-1" x="36.26" y="243.18" width="256.33" height="336"/>
    <rect class="cls-1" x="535.26" y="436.21" width="245.33" height="180.3"/>
    <rect class="cls-1" x="1380.59" y="464.82" width="168.67" height="149.03"/>
    <rect class="cls-1" x="45.04" y="206.74" width="133.33" height="76"/>
    <rect class="cls-1" x="65.04" y="181.85" width="93.78" height="52.44"/>
    <rect class="cls-1" x="91.26" y="150.29" width="50.22" height="47.56"/>
    <rect class="cls-1" x="101.93" y="137.4" width="56.89" height="56.89"/>
    <rect class="cls-1" x="78.37" y="171.18" width="65.78" height="51.11"/>
  </g>
  <g id="Warstwa_2" data-name="Warstwa 2">
    <g>
      <polygon class="cls-2" points="1549.26 95.51 1549.26 555.69 1546.35 555.69 1546.35 613.64 514.26 613.64 514.26 555.69 202.26 555.69 202.26 571.51 36.26 571.51 36.26 510.73 45.04 510.73 45.04 418.9 36.26 418.9 36.26 250.51 138.26 95.51 1549.26 95.51"/>
      <rect class="cls-2" x="1563.26" y="88.51" width="327.65" height="467.18"/>
      <rect class="cls-1" x="36.26" y="418.9" width="8.78" height="91.83"/>
      <rect class="cls-1" x="36.26" y="418.9" width="8.78" height="34.61"/>
      <rect class="cls-4" x="928.26" y="284.51" width="109" height="134.39"/>
      <text class="cls-3" transform="translate(16.55 555.69)"><tspan x="0" y="0">SHEIHU</tspan></text>
      <rect class="cls-4" x="0" y="418.9" width="45.04" height="91.83"/>
    </g>
  </g>
</svg>